<svg width="20" height="20" viewBox="0 0 20 20" fill="none" xmlns="http://www.w3.org/2000/svg">
<path d="M2.5 1.66699L3.5843 1.66699C4.57227 1.66699 5.06625 1.66699 5.40117 1.97651C5.73609 2.28603 5.80138 2.80288 5.93195 3.83658L6.87144 11.2742C7.04553 12.6525 7.13258 13.3416 7.57915 13.7543C8.02571 14.167 8.68435 14.167 10.0016 14.167L18.3333 14.167" stroke="#545454" stroke-width="1.5" stroke-linecap="round"/>
<circle cx="9.58203" cy="16.25" r="1.25" stroke="#545454" stroke-width="1.5"/>
<circle cx="15.418" cy="16.25" r="1.25" stroke="#545454" stroke-width="1.5"/>
<path d="M15 11.6663L13.3333 11.6663C11.762 11.6663 10.9763 11.6663 10.4882 11.1782C10 10.69 10 9.90436 10 8.33301L10 6.66634C10 5.09499 10 4.30932 10.4882 3.82116C10.9763 3.33301 11.762 3.33301 13.3333 3.33301L15 3.33301C16.5713 3.33301 17.357 3.33301 17.8452 3.82116C18.3333 4.30932 18.3333 5.09499 18.3333 6.66634V8.33301C18.3333 9.90436 18.3333 10.69 17.8452 11.1782C17.357 11.6663 16.5713 11.6663 15 11.6663Z" stroke="#545454" stroke-width="1.5" stroke-linecap="round" stroke-linejoin="round"/>
<path d="M13.75 5.83301L14.5833 5.83301" stroke="#545454" stroke-width="1.5" stroke-linecap="round" stroke-linejoin="round"/>
</svg>
