<svg width="30" height="30" viewBox="0 0 30 30" fill="none" xmlns="http://www.w3.org/2000/svg">
<path d="M24.375 21.875C24.375 23.6009 22.9759 25 21.25 25C19.5241 25 18.125 23.6009 18.125 21.875C18.125 20.1491 19.5241 18.75 21.25 18.75C22.9759 18.75 24.375 20.1491 24.375 21.875Z" stroke="#141B34" stroke-width="1.5"/>
<path d="M11.875 21.875C11.875 23.6009 10.4759 25 8.75 25C7.02411 25 5.625 23.6009 5.625 21.875C5.625 20.1491 7.02411 18.75 8.75 18.75C10.4759 18.75 11.875 20.1491 11.875 21.875Z" stroke="#141B34" stroke-width="1.5"/>
<path d="M18.125 21.875H11.875M24.375 21.875H25.3289C25.6039 21.875 25.7414 21.875 25.8569 21.8606C26.7086 21.7544 27.3794 21.0836 27.4856 20.2319C27.5 20.1164 27.5 19.9789 27.5 19.7039V16.25C27.5 11.7627 23.8623 8.125 19.375 8.125M18.75 19.375V8.75C18.75 6.98223 18.75 6.09835 18.2008 5.54917C17.6517 5 16.7678 5 15 5H6.25C4.48223 5 3.59835 5 3.04917 5.54917C2.5 6.09835 2.5 6.98223 2.5 8.75V18.75C2.5 19.9183 2.5 20.5024 2.7512 20.9375C2.91577 21.2225 3.15246 21.4592 3.4375 21.6238C3.8726 21.875 4.45673 21.875 5.625 21.875" stroke="#141B34" stroke-width="1.5" stroke-linecap="round" stroke-linejoin="round"/>
<path d="M8.125 8.75V13.7497M13.125 8.75V13.7497" stroke="#141B34" stroke-width="1.5" stroke-linecap="round" stroke-linejoin="round"/>
</svg>
