<svg width="30" height="30" viewBox="0 0 30 30" fill="none" xmlns="http://www.w3.org/2000/svg">
<path d="M19.375 13.75C19.375 16.1662 17.4162 18.125 15 18.125C12.5838 18.125 10.625 16.1662 10.625 13.75C10.625 11.3338 12.5838 9.375 15 9.375C17.4162 9.375 19.375 11.3338 19.375 13.75Z" stroke="#141B34" stroke-width="1.5"/>
<path d="M15 2.5C21.0882 2.5 26.25 7.54122 26.25 13.6572C26.25 19.8706 21.0042 24.2309 16.1588 27.1959C15.8056 27.3952 15.4063 27.5 15 27.5C14.5937 27.5 14.1944 27.3952 13.8412 27.1959C9.00487 24.202 3.75 19.8921 3.75 13.6572C3.75 7.54122 8.9118 2.5 15 2.5Z" stroke="#141B34" stroke-width="1.5"/>
</svg>
