<svg width="20" height="20" viewBox="0 0 20 20" fill="none" xmlns="http://www.w3.org/2000/svg">
<g clip-path="url(#clip0_3780_17053)">
<path d="M1.66797 15.0003C1.66797 13.7166 1.66797 13.0748 1.95691 12.6033C2.11859 12.3394 2.34041 12.1176 2.60425 11.9559C3.07575 11.667 3.7176 11.667 5.0013 11.667C6.285 11.667 6.92685 11.667 7.39836 11.9559C7.66219 12.1176 7.88402 12.3394 8.04569 12.6033C8.33464 13.0748 8.33464 13.7166 8.33464 15.0003C8.33464 16.284 8.33464 16.9259 8.04569 17.3974C7.88402 17.6612 7.66219 17.883 7.39836 18.0447C6.92685 18.3337 6.285 18.3337 5.0013 18.3337C3.7176 18.3337 3.07575 18.3337 2.60425 18.0447C2.34041 17.883 2.11859 17.6612 1.95691 17.3974C1.66797 16.9259 1.66797 16.284 1.66797 15.0003Z" stroke="#545454" stroke-width="1.5"/>
<path d="M11.668 15.0003C11.668 13.7166 11.668 13.0748 11.9569 12.6033C12.1186 12.3394 12.3404 12.1176 12.6042 11.9559C13.0758 11.667 13.7176 11.667 15.0013 11.667C16.285 11.667 16.9268 11.667 17.3984 11.9559C17.6622 12.1176 17.884 12.3394 18.0457 12.6033C18.3346 13.0748 18.3346 13.7166 18.3346 15.0003C18.3346 16.284 18.3346 16.9259 18.0457 17.3974C17.884 17.6612 17.6622 17.883 17.3984 18.0447C16.9268 18.3337 16.285 18.3337 15.0013 18.3337C13.7176 18.3337 13.0758 18.3337 12.6042 18.0447C12.3404 17.883 12.1186 17.6612 11.9569 17.3974C11.668 16.9259 11.668 16.284 11.668 15.0003Z" stroke="#545454" stroke-width="1.5"/>
<path d="M1.66797 5.00033C1.66797 3.71663 1.66797 3.07478 1.95691 2.60327C2.11859 2.33944 2.34041 2.11761 2.60425 1.95593C3.07575 1.66699 3.7176 1.66699 5.0013 1.66699C6.285 1.66699 6.92685 1.66699 7.39836 1.95593C7.66219 2.11761 7.88402 2.33944 8.04569 2.60327C8.33464 3.07478 8.33464 3.71663 8.33464 5.00033C8.33464 6.28402 8.33464 6.92587 8.04569 7.39738C7.88402 7.66122 7.66219 7.88304 7.39836 8.04472C6.92685 8.33366 6.285 8.33366 5.0013 8.33366C3.7176 8.33366 3.07575 8.33366 2.60425 8.04472C2.34041 7.88304 2.11859 7.66122 1.95691 7.39738C1.66797 6.92587 1.66797 6.28402 1.66797 5.00033Z" stroke="#545454" stroke-width="1.5"/>
<path d="M11.668 5.00033C11.668 3.71663 11.668 3.07478 11.9569 2.60327C12.1186 2.33944 12.3404 2.11761 12.6042 1.95593C13.0758 1.66699 13.7176 1.66699 15.0013 1.66699C16.285 1.66699 16.9268 1.66699 17.3984 1.95593C17.6622 2.11761 17.884 2.33944 18.0457 2.60327C18.3346 3.07478 18.3346 3.71663 18.3346 5.00033C18.3346 6.28402 18.3346 6.92587 18.0457 7.39738C17.884 7.66122 17.6622 7.88304 17.3984 8.04472C16.9268 8.33366 16.285 8.33366 15.0013 8.33366C13.7176 8.33366 13.0758 8.33366 12.6042 8.04472C12.3404 7.88304 12.1186 7.66122 11.9569 7.39738C11.668 6.92587 11.668 6.28402 11.668 5.00033Z" stroke="#545454" stroke-width="1.5"/>
</g>
<defs>
<clipPath id="clip0_3780_17053">
<rect width="20" height="20" fill="white"/>
</clipPath>
</defs>
</svg>
