<svg width="20" height="20" viewBox="0 0 20 20" fill="none" xmlns="http://www.w3.org/2000/svg">
<path d="M16.2526 14.5833C16.2526 15.7339 15.3199 16.6667 14.1693 16.6667C13.0187 16.6667 12.0859 15.7339 12.0859 14.5833C12.0859 13.4327 13.0187 12.5 14.1693 12.5C15.3199 12.5 16.2526 13.4327 16.2526 14.5833Z" stroke="#545454" stroke-width="1.5"/>
<path d="M7.91667 14.5833C7.91667 15.7339 6.98393 16.6667 5.83333 16.6667C4.68274 16.6667 3.75 15.7339 3.75 14.5833C3.75 13.4327 4.68274 12.5 5.83333 12.5C6.98393 12.5 7.91667 13.4327 7.91667 14.5833Z" stroke="#545454" stroke-width="1.5"/>
<path d="M12.0846 14.583H7.91797M16.2513 14.583H16.8873C17.0706 14.583 17.1622 14.583 17.2393 14.5734C17.807 14.5026 18.2543 14.0554 18.325 13.4876C18.3346 13.4106 18.3346 13.319 18.3346 13.1356V10.833C18.3346 7.84147 15.9095 5.41634 12.918 5.41634M12.5013 12.9163L12.5013 5.83301C12.5013 4.6545 12.5013 4.06524 12.1352 3.69912C11.7691 3.33301 11.1798 3.33301 10.0013 3.33301L4.16797 3.33301C2.98946 3.33301 2.4002 3.33301 2.03409 3.69912C1.66797 4.06524 1.66797 4.6545 1.66797 5.83301L1.66797 12.4997C1.66797 13.2785 1.66797 13.6679 1.83544 13.958C1.94515 14.148 2.10294 14.3058 2.29297 14.4155C2.58303 14.583 2.97246 14.583 3.7513 14.583" stroke="#545454" stroke-width="1.5" stroke-linecap="round" stroke-linejoin="round"/>
<path d="M5.41797 5.83301L5.41797 9.16614M8.7513 5.83301V9.16614" stroke="#545454" stroke-width="1.5" stroke-linecap="round" stroke-linejoin="round"/>
</svg>
