<svg width="20" height="20" viewBox="0 0 20 20" fill="none" xmlns="http://www.w3.org/2000/svg">
<path d="M17.7633 5.95084L17.3519 5.237C17.0409 4.69714 16.8853 4.42721 16.6207 4.31958C16.356 4.21194 16.0567 4.29687 15.4581 4.46674L14.4413 4.75316C14.0591 4.84129 13.6581 4.79129 13.3092 4.612L13.0284 4.45002C12.7292 4.25837 12.499 3.97579 12.3716 3.64363L12.0933 2.81247C11.9104 2.26246 11.8189 1.98745 11.6011 1.83015C11.3832 1.67285 11.0939 1.67285 10.5153 1.67285H9.58631C9.00768 1.67285 8.71836 1.67285 8.50055 1.83015C8.28274 1.98745 8.19125 2.26246 8.00827 2.81247L7.72997 3.64363C7.60257 3.97579 7.37241 4.25837 7.07317 4.45002L6.79244 4.612C6.44348 4.79129 6.04252 4.84129 5.66035 4.75316L4.64349 4.46674C4.04488 4.29687 3.74557 4.21194 3.48092 4.31958C3.21628 4.42721 3.06074 4.69714 2.74966 5.237L2.33834 5.95084C2.04674 6.45688 1.90095 6.7099 1.92925 6.97925C1.95754 7.2486 2.15272 7.46566 2.54308 7.89977L3.40228 8.86036C3.61228 9.12621 3.76137 9.58952 3.76137 10.006C3.76137 10.4229 3.61233 10.886 3.4023 11.1519L2.54308 12.1125C2.15273 12.5466 1.95754 12.7637 1.92925 13.0331C1.90095 13.3024 2.04675 13.5554 2.33834 14.0615L2.74965 14.7753C3.06072 15.3151 3.21628 15.5851 3.48092 15.6927C3.74557 15.8004 4.04488 15.7154 4.6435 15.5455L5.66031 15.2591C6.04255 15.171 6.44359 15.221 6.79259 15.4003L7.07328 15.5623C7.37245 15.754 7.60257 16.0365 7.72995 16.3687L8.00827 17.1999C8.19125 17.7499 8.28274 18.0249 8.50055 18.1822C8.71836 18.3395 9.00768 18.3395 9.58631 18.3395H10.5153C11.0939 18.3395 11.3832 18.3395 11.6011 18.1822C11.8189 18.0249 11.9104 17.7499 12.0933 17.1999L12.3717 16.3687C12.499 16.0365 12.7292 15.754 13.0283 15.5623L13.309 15.4003C13.658 15.221 14.0591 15.171 14.4413 15.2591L15.4581 15.5455C16.0567 15.7154 16.356 15.8004 16.6207 15.6927C16.8853 15.5851 17.0409 15.3151 17.352 14.7753L17.7633 14.0615C18.0549 13.5554 18.2007 13.3024 18.1724 13.0331C18.1441 12.7637 17.9489 12.5466 17.5585 12.1125L16.6993 11.1519C16.4893 10.886 16.3402 10.4229 16.3402 10.006C16.3402 9.58952 16.4893 9.12621 16.6993 8.86036L17.5585 7.89977C17.9489 7.46566 18.1441 7.2486 18.1724 6.97925C18.2007 6.7099 18.0549 6.45688 17.7633 5.95084Z" stroke="#545454" stroke-width="1.5" stroke-linecap="round"/>
<path d="M12.931 9.99967C12.931 11.6105 11.6252 12.9163 10.0143 12.9163C8.40349 12.9163 7.09766 11.6105 7.09766 9.99967C7.09766 8.38884 8.40349 7.08301 10.0143 7.08301C11.6252 7.08301 12.931 8.38884 12.931 9.99967Z" stroke="#545454" stroke-width="1.5"/>
</svg>
