<svg width="20" height="20" viewBox="0 0 20 20" fill="none" xmlns="http://www.w3.org/2000/svg">
<g clip-path="url(#clip0_3780_17456)">
<path d="M11.441 2.87047L12.9075 5.82772C13.1075 6.23938 13.6408 6.63424 14.0907 6.70985L16.7487 7.15512C18.4486 7.44076 18.8485 8.68415 17.6236 9.91074L15.5572 11.9943C15.2072 12.3471 15.0156 13.0276 15.1239 13.5149L15.7155 16.0941C16.1821 18.1356 15.1073 18.9253 13.3158 17.8583L10.8244 16.3713C10.3745 16.1025 9.63287 16.1025 9.17458 16.3713L6.68319 17.8583C4.90006 18.9253 3.81684 18.1272 4.28346 16.0941L4.87506 13.5149C4.98338 13.0276 4.79173 12.3471 4.44177 11.9943L2.37533 9.91074C1.1588 8.68415 1.55043 7.44076 3.25024 7.15512L5.90828 6.70985C6.3499 6.63424 6.88317 6.23938 7.08315 5.82772L8.54965 2.87047C9.34956 1.26583 10.6494 1.26583 11.441 2.87047Z" stroke="#545454" stroke-width="1.5" stroke-linecap="round" stroke-linejoin="round"/>
</g>
<defs>
<clipPath id="clip0_3780_17456">
<rect width="20" height="20" fill="white"/>
</clipPath>
</defs>
</svg>
