<svg width="20" height="20" viewBox="0 0 20 20" fill="none" xmlns="http://www.w3.org/2000/svg">
<path d="M6.66406 13.3337H9.9974M6.66406 9.16699H13.3307" stroke="#545454" stroke-width="1.5" stroke-linecap="round"/>
<path d="M6.25065 2.91699C4.95415 2.95589 4.18116 3.10019 3.6463 3.63555C2.91406 4.36847 2.91406 5.54808 2.91406 7.90729L2.91406 13.329C2.91406 15.6882 2.91406 16.8678 3.6463 17.6007C4.37853 18.3337 5.55704 18.3337 7.91406 18.3337L12.0807 18.3337C14.4378 18.3337 15.6163 18.3337 16.3485 17.6007C17.0807 16.8678 17.0807 15.6882 17.0807 13.329V7.90729C17.0807 5.54808 17.0807 4.36847 16.3485 3.63555C15.8136 3.10019 15.0406 2.95589 13.7441 2.91699" stroke="#545454" stroke-width="1.5"/>
<path d="M6.24609 3.12533C6.24609 2.31991 6.89901 1.66699 7.70443 1.66699H12.2878C13.0932 1.66699 13.7461 2.31991 13.7461 3.12533C13.7461 3.93074 13.0932 4.58366 12.2878 4.58366H7.70443C6.89901 4.58366 6.24609 3.93074 6.24609 3.12533Z" stroke="#545454" stroke-width="1.5" stroke-linejoin="round"/>
</svg>
